<?xml version="1.0" encoding="UTF-8" standalone="no"?>
<svg
   xmlns:dc="http://purl.org/dc/elements/1.1/"
   xmlns:cc="http://creativecommons.org/ns#"
   xmlns:rdf="http://www.w3.org/1999/02/22-rdf-syntax-ns#"
   xmlns:svg="http://www.w3.org/2000/svg"
   xmlns="http://www.w3.org/2000/svg"
   xmlns:sodipodi="http://sodipodi.sourceforge.net/DTD/sodipodi-0.dtd"
   xmlns:inkscape="http://www.inkscape.org/namespaces/inkscape"
   width="197"
   height="134"
   viewBox="0 0 197 134"
   version="1.1"
   id="svg34"
   sodipodi:docname="logo_small.svg"
   inkscape:version="1.0.2-2 (e86c870879, 2021-01-15)">
  <metadata
     id="metadata40">
    <rdf:RDF>
      <cc:Work
         rdf:about="">
        <dc:format>image/svg+xml</dc:format>
        <dc:type
           rdf:resource="http://purl.org/dc/dcmitype/StillImage" />
        <dc:title></dc:title>
      </cc:Work>
    </rdf:RDF>
  </metadata>
  <defs
     id="defs38" />
  <sodipodi:namedview
     pagecolor="#ffffff"
     bordercolor="#666666"
     borderopacity="1"
     objecttolerance="10"
     gridtolerance="10"
     guidetolerance="10"
     inkscape:pageopacity="0"
     inkscape:pageshadow="2"
     inkscape:window-width="1920"
     inkscape:window-height="1017"
     id="namedview36"
     showgrid="false"
     inkscape:zoom="1.5026019"
     inkscape:cx="106.53298"
     inkscape:cy="143.16909"
     inkscape:window-x="1272"
     inkscape:window-y="-8"
     inkscape:window-maximized="1"
     inkscape:current-layer="svg34" />
  <path
     id="path879"
     style="fill:#5f9f2d;fill-opacity:1"
     d="m 0,0 v 67 67 H 98.5 197 V 67 0 H 98.5 Z M 107,9.9765625 146.75,10.238281 186.5,10.5 186.78125,22.25 187.0625,34 H 171.53125 156 v 35 35 h 15.5 15.5 v 10 10 H 147 107 V 106.70117 89.402344 l 3.41406,-1.234375 C 117.04974,85.768479 122.98828,76.71498 122.98828,69 c 0,-7.71499 -5.93854,-16.768479 -12.57422,-19.167969 L 107,48.597656 V 29.287109 Z M 10,10 H 53.5 97 v 19.025391 19.023437 l -2.74609,1.044922 c -18.07418,6.87179 -18.07418,32.9407 0,39.8125 L 97,89.951172 V 106.97461 124 H 53.5 10 V 114 104 H 25 40 V 69 34 H 25 10 V 22 Z m 0,34 H 20 30 V 69 94 H 20 10 V 69 Z m 156,0 H 176.5 187 V 69 94 H 176.5 166 V 69 Z m -59,13.650391 2.4707,2.322265 c 3.54615,3.33143 4.95553,8.2073 3.57813,12.38086 -0.60861,1.84412 -2.21909,4.397078 -3.57813,5.673828 L 107,80.347656 V 69 Z M 96.13477,58.611328 C 96.96581,58.760956 97,60.935216 97,68.964844 97,75.034194 96.8875,79.98545 96.75,79.96875 95.30474,79.79296 92.70775,77.33552 91.5,75 88.67059,69.52852 90.44447,61.437421 95.00977,58.994141 c 0.48258,-0.25827 0.84798,-0.432689 1.125,-0.382813 z" />
</svg>
