<?xml version="1.0" encoding="UTF-8" standalone="no"?>
<svg
   xmlns:dc="http://purl.org/dc/elements/1.1/"
   xmlns:cc="http://creativecommons.org/ns#"
   xmlns:rdf="http://www.w3.org/1999/02/22-rdf-syntax-ns#"
   xmlns:svg="http://www.w3.org/2000/svg"
   xmlns="http://www.w3.org/2000/svg"
   xmlns:sodipodi="http://sodipodi.sourceforge.net/DTD/sodipodi-0.dtd"
   xmlns:inkscape="http://www.inkscape.org/namespaces/inkscape"
   width="622"
   height="134"
   viewBox="0 0 622 134"
   version="1.1"
   id="svg34"
   sodipodi:docname="logo.svg"
   inkscape:version="1.0.2-2 (e86c870879, 2021-01-15)">
  <metadata
     id="metadata40">
    <rdf:RDF>
      <cc:Work
         rdf:about="">
        <dc:format>image/svg+xml</dc:format>
        <dc:type
           rdf:resource="http://purl.org/dc/dcmitype/StillImage" />
      </cc:Work>
    </rdf:RDF>
  </metadata>
  <defs
     id="defs38" />
  <sodipodi:namedview
     pagecolor="#ffffff"
     bordercolor="#666666"
     borderopacity="1"
     objecttolerance="10"
     gridtolerance="10"
     guidetolerance="10"
     inkscape:pageopacity="0"
     inkscape:pageshadow="2"
     inkscape:window-width="1920"
     inkscape:window-height="1017"
     id="namedview36"
     showgrid="false"
     inkscape:zoom="1.0625"
     inkscape:cx="258.05204"
     inkscape:cy="227.80728"
     inkscape:window-x="1272"
     inkscape:window-y="-8"
     inkscape:window-maximized="1"
     inkscape:current-layer="svg34" />
  <path
     style="fill:#5f9f2d;fill-opacity:1"
     d="M 425,67.000002 V 0 H 523.5 622 V 67.000002 134 H 523.5 425 Z m 97,39.975248 V 89.950502 l -2.74557,-1.04386 c -18.07418,-6.8718 -18.07418,-32.94149 0,-39.81328 L 522,48.049502 V 29.02475 10 H 478.5 435 v 12 12 h 15 15 V 69.000002 104 h -15 -15 v 10 10 H 478.5 522 Z M 612,114 V 104 H 596.5 581 V 69.000002 34 h 15.53174 15.53173 L 611.78174,22.25 611.5,10.5 571.75,10.23852 532,9.97705 v 19.31059 19.310582 l 3.41403,1.23453 c 6.63568,2.39949 12.57482,11.45226 12.57482,19.16725 0,7.71498 -5.93914,16.76776 -12.57482,19.16725 L 532,89.401782 V 106.70089 124 h 40 40 z M 455,69.000002 V 44 h -10 -10 v 25.000002 25 h 10 10 z m 157,0 V 44 H 601.5 591 v 25.000002 25 h 10.5 10.5 z m -90,-0.0352 c 0,-10.70617 -0.0593,-11.00344 -1.98965,-9.97036 -4.5653,2.44328 -6.33978,10.53402 -3.51037,16.0055 1.20775,2.33552 3.80476,4.79384 5.25002,4.96963 0.1375,0.0167 0.25,-4.93542 0.25,-11.00477 z m 16.04853,3.38813 c 1.3774,-4.17356 -0.0314,-9.04878 -3.57755,-12.38021 L 532,57.651352 v 11.34863 11.34863 l 2.47098,-2.32137 c 1.35904,-1.27675 2.96894,-3.83019 3.57755,-5.67431 z M 0,65.499982 V 36.99998 h 8.45078 c 11.82565,0 18.06449,1.52886 22.38091,5.48457 3.25605,2.98394 3.59272,3.81684 3.97602,9.836462 0.35055,5.50532 0.0581,7.15995 -1.79525,10.15881 -3.26123,5.27678 -8.90075,7.77703 -18.76246,8.31822 L 6,71.250782 v 11.3746 11.3746 H 3 0 Z m 22.40143,-0.89437 C 27.0534,62.661892 29,59.454152 29,53.732022 29,45.81046 23.25994,42.01831 11.25,42.00556 L 6,41.99956 v 12.000002 12 h 6.53212 c 3.59266,0 8.03385,-0.62747 9.86931,-1.39437 z M 48,65.499982 V 36.99998 h 3 3 v 28.500002 28.5 h -3 -3 z m 33,2.5 V 41.99998 h -9 c -8.93333,0 -9,-0.0185 -9,-2.5 v -2.5 h 21 21 v 2.46107 c 0,2.40523 -0.19851,2.46762 -8.75,2.75 l -8.75,0.28893 -0.26688,25.750002 -0.26688,25.75 H 83.98312 81 Z m 46.23888,24.66513 c -5.11832,-1.85626 -9.52506,-5.92808 -12.18096,-11.25517 -3.26809,-6.55501 -3.99696,-18.66797 -1.61609,-26.85785 4.10921,-14.135212 19.45907,-21.156422 36.32419,-16.615112 4.6004,1.23875 4.92105,1.74112 2.88689,4.523 -1.16789,1.59718 -1.78637,1.68912 -4.64923,0.69113 -8.66746,-3.0215 -20.23458,-0.48694 -24.91126,5.458502 C 120.4518,51.966622 118,60.098662 118,65.499982 c 0,5.40132 2.4518,13.53336 5.09242,16.89037 4.63464,5.89199 14.61321,8.13903 25.21509,5.67811 3.70648,-0.86035 3.79935,-0.81433 3.5,1.73431 -0.21205,1.8054 -1.08357,2.83227 -2.80751,3.30798 -4.06808,1.12258 -18.23713,0.83241 -21.76112,-0.44564 z M 165,65.499982 V 36.99998 h 2.96922 2.96922 l 0.28078,12.250002 0.28078,12.25 h 15 15 l 0.28078,-12.25 0.28078,-12.250002 H 205.03078 208 v 28.500002 28.5 h -3 -3 v -13.5 -13.5 H 186.5 171 v 13.5 13.5 h -3 -3 z m 61,0 V 36.99998 h 7.83553 7.83552 l 6.33726,20.750002 c 3.4855,11.4125 6.65311,21.38079 7.03915,22.15175 0.41459,0.82799 3.71376,-7.66533 8.06019,-20.75 l 7.3583,-22.151752 H 278.23297 286 v 28.500002 28.5 h -4.98123 -4.98122 l -0.26878,-22.75 -0.26877,-22.75 -7.46999,22.75 -7.46999,22.75 h -5.22444 -5.22444 l -3.48035,-11.25 c -1.91419,-6.1875 -4.91731,-15.975 -6.6736,-21.75 -1.75628,-5.775 -3.4781,-10.81547 -3.82625,-11.20104 -0.34816,-0.38556 -0.47122,9.40194 -0.27347,21.75 l 0.35954,22.45104 H 231.1085 226 Z m 69.62063,24.25 C 299.35455,79.390922 314,37.61529 314,37.32346 c 0,-0.17791 3.2625,-0.32219 7.25,-0.32061 l 7.25,0.003 9.76392,27.747132 c 5.37015,15.26092 9.75765,28.08463 9.75,28.49713 -0.008,0.4125 -2.64687,0.75 -5.86493,0.75 h -5.85101 l -2.01192,-6.75 -2.01193,-6.75 H 321.3931 310.51206 l -1.94088,6.75 -1.94089,6.75 h -6.27079 -6.27078 l 1.53191,-4.25 z m 32.92504,-21.5 c -1.66365,-6.81677 -6.88143,-22.247582 -7.36073,-21.76828 -0.67519,0.6752 -7.10312,21.59372 -7.14997,23.26828 -0.025,0.89353 2.13473,1.25 7.57344,1.25 h 7.60841 z M 357,65.367252 V 36.73454 l 12.82856,0.46324 c 11.17795,0.40363 13.39746,0.77523 17.25,2.88809 5.47343,3.0018 7.91778,7.539962 7.91989,14.703972 0.003,11.47358 -6.14791,17.26011 -19.14808,18.01268 L 368,73.256972 v 10.37152 10.37151 h -5.5 -5.5 z m 24.66944,-4.76936 c 2.94502,-3.42379 2.97635,-7.73833 0.0806,-11.09268 -1.77062,-2.05099 -3.47509,-2.73186 -8,-3.195662 l -5.75,-0.58938 v 9.263742 9.26373 l 5.66944,-0.47016 c 4.59718,-0.38123 6.11021,-0.98258 8,-3.17959 z"
     id="path879" />
</svg>
